<svg width="28" height="28" viewBox="0 0 28 28" fill="none" xmlns="http://www.w3.org/2000/svg">
<g clip-path="url(#clip0_139_430)">
<path d="M-6.11959e-07 14C-2.73582e-07 6.25882 6.25882 -9.50337e-07 14 -6.11959e-07C21.7412 -2.73582e-07 28 6.25882 28 14C28 21.7412 21.7412 28 14 28C6.25882 28 -9.50337e-07 21.7412 -6.11959e-07 14ZM26.3529 14C26.3529 7.16471 20.8353 1.64706 14 1.64706C7.16471 1.64706 1.64706 7.1647 1.64706 14C1.64706 20.8353 7.1647 26.3529 14 26.3529C20.8353 26.3529 26.3529 20.8353 26.3529 14Z" fill="#AC6BFC"/>
<path d="M12.5991 20.8352L19.4344 14L12.5991 7.16466L13.752 6.01172L21.7402 14L13.752 21.9882L12.5991 20.8352Z" fill="#AC6BFC"/>
<path d="M20.5879 13.1765L20.5879 14.8236L6.58789 14.8236L6.58789 13.1765L20.5879 13.1765Z" fill="#AC6BFC"/>
</g>
<defs>
<clipPath id="clip0_139_430">
<rect width="28" height="28" fill="white" transform="translate(28) rotate(90)"/>
</clipPath>
</defs>
</svg>
